<svg width="229" height="163" viewBox="0 0 229 163" fill="none" xmlns="http://www.w3.org/2000/svg">
<mask id="mask0" mask-type="alpha" maskUnits="userSpaceOnUse" x="0" y="0" width="229" height="163">
<rect opacity="0.9" width="229" height="163" fill="#1B1633"/>
</mask>
<g mask="url(#mask0)">
<path opacity="0.1" d="M-239 80.6278C-198.197 80.4884 -194.738 2 -164.41 2C-134.081 2 -112.335 159 -78.1794 159C-44.0241 159 -31.7116 2 6.99864 2C45.7089 2 56.7994 156.527 95.5595 156.527C134.32 156.527 147.734 2 181.536 2C215.337 2 217.685 108.117 237 108.117" stroke="#50E3C2" stroke-width="1.5"/>
<path opacity="0.1" d="M-239 80.6278C-191.683 80.4884 -187.671 2 -152.5 2C-117.33 2 -92.1109 159 -52.5022 159C-12.8935 159 1.38482 2 46.2757 2C91.1666 2 104.028 156.527 148.977 156.527C193.925 156.527 209.481 2 248.68 2C287.879 2 290.601 108.117 313 108.117" stroke="#FF3B62" stroke-width="1.5"/>
<path opacity="0.1" d="M-239 80.6278C-184.139 80.4884 -179.488 2 -138.71 2C-97.9331 2 -68.6938 159 -22.7706 159C23.1525 159 39.707 2 91.7545 2C143.802 2 158.714 156.527 210.828 156.527C262.942 156.527 280.978 2 326.426 2C371.874 2 375.031 108.117 401 108.117" stroke="#479CFF" stroke-width="1.5"/>
</g>
</svg>
