<svg width="22" height="22" viewBox="0 0 22 22" fill="none" xmlns="http://www.w3.org/2000/svg">
<mask id="mask0" mask-type="alpha" maskUnits="userSpaceOnUse" x="0" y="0" width="23" height="22">
<path fill-rule="evenodd" clip-rule="evenodd" d="M0.00195312 0.000854492H22.0007V21.8664H0.00195312V0.000854492Z" fill="white"/>
</mask>
<g mask="url(#mask0)">
<path fill-rule="evenodd" clip-rule="evenodd" d="M21.2686 11.243C21.2686 10.4847 21.2006 9.75554 21.0742 9.05554H11.002V13.1923H16.7575C16.5096 14.5292 15.7561 15.6618 14.6235 16.4201V19.1035H18.0797C20.102 17.2417 21.2686 14.5 21.2686 11.243Z" fill="white"/>
<path fill-rule="evenodd" clip-rule="evenodd" d="M11.0023 21.6944C13.8898 21.6944 16.3106 20.7368 18.08 19.1035L14.6238 16.4201C13.6661 17.0618 12.4411 17.441 11.0023 17.441C8.21684 17.441 5.8592 15.5597 5.01823 13.0319H1.44531V15.8028C3.20503 19.2979 6.8217 21.6944 11.0023 21.6944Z" fill="white"/>
<path fill-rule="evenodd" clip-rule="evenodd" d="M5.01706 13.0319C4.80317 12.3903 4.68164 11.7048 4.68164 11C4.68164 10.2951 4.80317 9.6097 5.01706 8.96804V6.1972H1.44414C0.719835 7.64095 0.306641 9.27429 0.306641 11C0.306641 12.7257 0.719835 14.359 1.44414 15.8028L5.01706 13.0319Z" fill="white"/>
<path fill-rule="evenodd" clip-rule="evenodd" d="M11.0023 4.55901C12.5724 4.55901 13.9821 5.0986 15.0905 6.15832L18.1578 3.09096C16.3057 1.36526 13.8849 0.305542 11.0023 0.305542C6.8217 0.305542 3.20503 2.70207 1.44531 6.19721L5.01823 8.96804C5.8592 6.44026 8.21684 4.55901 11.0023 4.55901Z" fill="white"/>
</g>
</svg>
