<svg width="32" height="32" viewBox="0 0 32 32" fill="none" xmlns="http://www.w3.org/2000/svg">
<mask id="mask0" mask-type="alpha" maskUnits="userSpaceOnUse" x="5" y="5" width="22" height="22">
<path fill-rule="evenodd" clip-rule="evenodd" d="M5.00128 5.00085H27V26.8664H5.00128V5.00085Z" fill="white"/>
</mask>
<g mask="url(#mask0)">
<path fill-rule="evenodd" clip-rule="evenodd" d="M26.2667 16.243C26.2667 15.4847 26.1986 14.7555 26.0722 14.0555H16V18.1923H21.7556C21.5076 19.5292 20.7542 20.6618 19.6215 21.4201V24.1035H23.0778C25.1 22.2417 26.2667 19.5 26.2667 16.243Z" fill="white"/>
<path fill-rule="evenodd" clip-rule="evenodd" d="M16 26.6944C18.8875 26.6944 21.3083 25.7368 23.0778 24.1035L19.6215 21.4201C18.6639 22.0618 17.4389 22.441 16 22.441C13.2146 22.441 10.8569 20.5597 10.016 18.0319H6.44305V20.8028C8.20278 24.2979 11.8194 26.6944 16 26.6944Z" fill="white"/>
<path fill-rule="evenodd" clip-rule="evenodd" d="M10.016 18.0319C9.80213 17.3903 9.6806 16.7048 9.6806 16C9.6806 15.2951 9.80213 14.6097 10.016 13.968V11.1972H6.4431C5.7188 12.641 5.3056 14.2743 5.3056 16C5.3056 17.7257 5.7188 19.359 6.4431 20.8028L10.016 18.0319Z" fill="white"/>
<path fill-rule="evenodd" clip-rule="evenodd" d="M16 9.55901C17.5701 9.55901 18.9799 10.0986 20.0882 11.1583L23.1556 8.09096C21.3035 6.36526 18.8826 5.30554 16 5.30554C11.8194 5.30554 8.20278 7.70207 6.44305 11.1972L10.016 13.968C10.8569 11.4403 13.2146 9.55901 16 9.55901Z" fill="white"/>
</g>
</svg>
